<svg width="100" height="100" viewBox="0 0 100 100" fill="none" xmlns="http://www.w3.org/2000/svg">
  <!-- Open Book -->
  <path d="M10 25 L10 75 Q10 80 15 82 L48 85 L48 35 Q48 30 43 28 L15 25 Q10 25 10 25 Z" fill="#D97706" stroke="#92400E" stroke-width="2"/>
  <path d="M90 25 L90 75 Q90 80 85 82 L52 85 L52 35 Q52 30 57 28 L85 25 Q90 25 90 25 Z" fill="#F59E0B" stroke="#92400E" stroke-width="2"/>
  <!-- Pages -->
  <line x1="20" y1="40" x2="40" y2="42" stroke="#92400E" stroke-width="1" opacity="0.5"/>
  <line x1="20" y1="50" x2="40" y2="52" stroke="#92400E" stroke-width="1" opacity="0.5"/>
  <line x1="20" y1="60" x2="40" y2="62" stroke="#92400E" stroke-width="1" opacity="0.5"/>
  <line x1="60" y1="42" x2="80" y2="40" stroke="#92400E" stroke-width="1" opacity="0.5"/>
  <line x1="60" y1="52" x2="80" y2="50" stroke="#92400E" stroke-width="1" opacity="0.5"/>
  <line x1="60" y1="62" x2="80" y2="60" stroke="#92400E" stroke-width="1" opacity="0.5"/>
  <!-- Center binding -->
  <rect x="48" y="25" width="4" height="60" fill="#92400E"/>
</svg>
